<?xml version="1.0"?>
<svg width="300" height="300" xmlns="http://www.w3.org/2000/svg" xmlns:svg="http://www.w3.org/2000/svg">
 
 <g class="layer">
  <title>Layer 1</title>
  <circle cx="141.500001" cy="147.000008" fill="#000000" id="svg_1" r="134.404022" stroke="#000000" stroke-dasharray="null" stroke-linecap="null" stroke-linejoin="null" stroke-width="5"/>
  <path d="m71.102513,75.021574l0,0c12.518698,0 22.667114,-16.043449 22.667114,-35.834051l90.665737,0l0,0c0,19.790596 10.148415,35.834051 22.667105,35.834051l0,143.331915l0,0c-12.518694,0 -22.667105,16.043434 -22.667105,35.834037l-90.665737,0c0,-19.79061 -10.148415,-35.834037 -22.667114,-35.834037l0,-143.331915z" fill="#ffffff" id="svg_5" stroke="#000000" stroke-dasharray="null" stroke-linecap="null" stroke-linejoin="null" stroke-width="5"/>
  <circle cx="102.500001" cy="70.999999" fill="#ffffff" id="svg_8" r="26.244324" stroke="#ffffff" stroke-dasharray="null" stroke-linecap="null" stroke-linejoin="null" stroke-width="5"/>
  <circle cx="176.500001" cy="70.499999" fill="#ffffff" id="svg_9" r="26.244324" stroke="#ffffff" stroke-dasharray="null" stroke-linecap="null" stroke-linejoin="null" stroke-width="5"/>
  <circle cx="101.500001" cy="223.499999" fill="#ffffff" id="svg_10" r="26.244324" stroke="#ffffff" stroke-dasharray="null" stroke-linecap="null" stroke-linejoin="null" stroke-width="5"/>
  <circle cx="176.500001" cy="223.499999" fill="#ffffff" id="svg_11" r="26.244324" stroke="#ffffff" stroke-dasharray="null" stroke-linecap="null" stroke-linejoin="null" stroke-width="5"/>
  <rect fill="#000000" height="173.000002" id="svg_12" stroke="#000000" stroke-dasharray="null" stroke-linecap="null" stroke-linejoin="null" stroke-width="5" width="104.999995" x="86.500001" y="56.5"/>
  <ellipse cx="139.500001" cy="242" fill="#000000" id="svg_13" rx="12.000001" ry="5.5" stroke="#000000" stroke-dasharray="null" stroke-linecap="null" stroke-linejoin="null" stroke-width="5"/>
 </g>
</svg>